<svg width="667" height="177" viewBox="0 0 667 177" fill="none" xmlns="http://www.w3.org/2000/svg">
<g clip-path="url(#clip0_866_9947)">
<path d="M666.87 175.98L598.94 176.29L585.94 140.58L576.85 141.22L571.95 176.07L352.82 176.17L340.19 129.18L332.87 175.95L64.08 176.08L36.29 99.71L75.49 99.7L63.77 67.5L26.24 72.11L0 0L603.8 0.01L666.87 175.98Z" fill="white"/>
<path d="M593.17 15.0413H549.58L529.94 161.101H558.84L563.61 127.131L596.09 124.861L609.34 161.271L645.52 161.101L593.17 15.0312V15.0413ZM566.66 105.491L572.79 61.8413L588.36 103.591L566.65 105.491H566.66Z" fill="#202020"/>
<path d="M382.76 15.1195L406.56 119.81L485.49 112.39L478.6 161.19H508.16L520.96 70.1095L490.73 74.8995L499.14 15.0595L459.37 15.0195L452.29 80.9895L432.42 84.1395L428.47 15.0495L382.76 15.1295V15.1195Z" fill="#202020"/>
<path d="M237.83 15.0391L291 161.109L319.95 161.019L336.22 56.9891L364.24 161.189L457.03 161.029L460.73 134.429L388.66 138.919L358.31 15.0491L312.66 15.0691L305.51 103.989L283.35 15.0491H237.83V15.0391Z" fill="#202020"/>
<path d="M164.1 161.202L156.97 77.5016L179.54 15.1016H215.58L268.75 161.172L222.93 161.192L193.11 54.6516L185.92 74.3216L193.52 161.192H164.11L164.1 161.202Z" fill="#202020"/>
<path d="M36.1796 55.7991L21.3496 15.0391H89.0996L100.96 47.6091L115.31 45.9691L119.11 15.0491H158.42L135.22 78.7791L142.43 161.129H74.5196L57.6396 114.759H96.8396L104.21 135.019L110.9 81.8091L85.9496 84.8691L73.7096 51.2191L36.1696 55.8291L36.1796 55.7991Z" fill="#202020"/>
</g>
<defs>
<clipPath id="clip0_866_9947">
<rect width="666.87" height="176.29" fill="white"/>
</clipPath>
</defs>
</svg>
