<svg width="1400" height="800" viewBox="0 0 1400 800" fill="none" xmlns="http://www.w3.org/2000/svg">
<path d="M964.115 296H1001.07L1201 98.2215L1074.98 14L912 84.9732L984.013 182.443L964.115 296Z" fill="#F8F8F8"/>
<path d="M1528.89 280H1491.93L1292 477.779L1418.02 562L1581 491.027L1508.99 393.557L1528.89 280Z" fill="#F8F8F8"/>
<path d="M227 244.885L227 207.931L29.2215 8L-55 134.023L15.9732 297L113.443 224.987L227 244.885Z" fill="#F8F8F8"/>
<path d="M356 476.5L356 505.001L29.2215 812L-55 685.977L-21.5 512L112 553.5L356 476.5Z" fill="#F8F8F8"/>
<path d="M572.003 613.887L778.276 732.979L767.441 653.007L877.441 672.084L855.839 512.831L585.786 513.795L572.003 613.887Z" fill="#F8F8F8"/>
<path d="M1056.5 401L1024 315L1202.5 137.5L1257.5 461L1056.5 401Z" fill="#F8F8F8"/>
<path d="M1434.5 169.944L1477 270.056L1285.28 458L1222 118L1434.5 169.944Z" fill="#F8F8F8"/>
<path d="M337.056 150.5L236.944 193L49 1.27779L389 -62L337.056 150.5Z" fill="#F8F8F8"/>
<path d="M370.5 517.5L237.5 645L49 818.722L389 882L370.5 517.5Z" fill="#F8F8F8"/>
<path d="M1052.82 425L880 508.136L886.647 560.095L995.849 527.03V613L1167.72 587.492L1253 489L1052.82 425Z" fill="#F8F8F8"/>
<path d="M354 166.176L449.075 339L508.497 332.353L470.683 223.151L569 223.151L526.5 -43L401.538 2.07794e-06L354 166.176Z" fill="#F8F8F8"/>
<path d="M958.5 188.363L939 296H735.338L704 188.363L834.101 179.865L897.727 93L958.5 188.363Z" fill="#F8F8F8"/>
<path d="M1106 10.5L1213.5 -19L1415.66 2.99988L1447 110.637L1458.5 159.5L1222 93.5L1106 10.5Z" fill="#F8F8F8"/>
<path d="M1106 809.5L1213.5 839L1415.66 817L1447 709.363L1458.5 660.5L1222 726.5L1106 809.5Z" fill="#F8F8F8"/>
<path d="M1272 520L1190.5 615.5L1222.5 686.5L1508 615.5L1272 520Z" fill="#F8F8F8"/>
<path d="M889 74L815 166.5L704.5 176L673 49.5L644.5 -130.5L1108 -18L889 74Z" fill="#F8F8F8"/>
<path d="M889 746L815 653.5L704.5 644L673 770.5L644.5 950.5L1108 838L889 746Z" fill="#F8F8F8"/>
<path d="M113.251 255L219 273.993L219 487.662L111.363 519L-56.5 470L16.0001 325.273L113.251 255Z" fill="#F8F8F8"/>
<path d="M337 176L429.5 363.5L411 417.662L319 468L245.5 491L245.5 209.5L337 176Z" fill="#F8F8F8"/>
<path d="M392 508.001L418 850L628 850L649.5 707.698L542 639.5L563 508.001L392 508.001Z" fill="#F8F8F8"/>
<path d="M979 642.768V560L888 585.686L903.5 679L917 717.924L1069.5 778.5L1198 701.5L1161 616.13L979 642.768Z" fill="#F8F8F8"/>
<path d="M595 238L503 238L528.686 329L714 312L642.5 -34.5L546.5 -34.5L595 238Z" fill="#F8F8F8"/>
</svg>
