<svg width="705" height="253" viewBox="0 0 705 253" fill="none" xmlns="http://www.w3.org/2000/svg">
<g clip-path="url(#clip0_858_2)">
<path d="M705 185.673L633.186 186L619.443 148.323L609.833 148.998L604.653 185.768L372.993 185.873L359.641 136.295L351.903 185.641L67.7439 185.778L38.365 105.202L79.8063 105.191L67.4162 71.2179L27.7403 76.0818L0 0L638.324 0.0105508L705 185.673Z" fill="white"/>
<path d="M627.086 15.8684H581.004L560.241 169.973H590.793L595.836 134.132L630.173 131.737L644.181 170.153L682.429 169.973L627.086 15.8578V15.8684ZM599.06 111.3L605.541 65.2461L622.001 109.296L599.05 111.3H599.06Z" fill="#202020"/>
<path d="M404.645 15.9528L429.806 126.409L513.249 118.58L505.965 170.068H537.215L550.747 73.9716L518.789 79.0255L527.68 15.8895L485.636 15.8473L478.151 85.4509L457.145 88.7744L452.969 15.8789L404.645 15.9633V15.9528Z" fill="#202020"/>
<path d="M251.428 15.8684L307.639 169.984L338.244 169.889L355.444 60.129L385.066 170.068L483.162 169.9L487.073 141.834L410.883 146.572L378.797 15.879L330.537 15.9001L322.978 109.718L299.551 15.879H251.428V15.8684Z" fill="#202020"/>
<path d="M173.483 170.079L165.945 81.7687L189.806 15.9317H227.906L284.116 170.047L235.677 170.068L204.152 57.6601L196.55 78.4135L204.585 170.068H173.493L173.483 170.079Z" fill="#202020"/>
<path d="M38.2487 58.8735L22.5708 15.8684H94.1946L106.733 50.2324L121.903 48.502L125.92 15.879H167.478L142.952 83.1192L150.574 170.005H78.7809L60.9358 121.081H102.377L110.169 142.457L117.241 86.3161L90.8645 89.5446L77.9246 54.0412L38.2382 58.9051L38.2487 58.8735Z" fill="#202020"/>
</g>
<mask id="path-7-outside-1_858_2" maskUnits="userSpaceOnUse" x="234" y="191" width="238" height="62" fill="black">
<rect fill="white" x="234" y="191" width="238" height="62"/>
<path d="M260.655 234.48C253.423 234.48 248.175 229.648 248.175 222.544C248.175 215.44 253.423 210.64 260.655 210.64C266.799 210.64 271.663 214.288 272.335 219.664L266.095 220.336C265.551 217.904 263.375 216.144 260.847 216.144C257.327 216.144 254.959 218.704 254.959 222.544C254.959 226.384 257.359 228.944 260.815 228.944C263.311 228.944 265.551 227.216 266.095 224.816L272.399 225.552C271.791 230.864 266.927 234.48 260.655 234.48ZM279.622 234V216.624H272.454V211.088H293.542V216.624H286.374V234H279.622ZM291.092 234L298.292 211.088H308.212L315.38 234H308.436L307.348 230.512H299.124L298.036 234H291.092ZM300.468 225.712H306.036L303.412 216.816H303.092L300.468 225.712ZM327.645 209.488C324.445 209.488 322.141 207.664 322.141 205.136H326.109C326.109 206.16 326.717 206.832 327.645 206.832C328.573 206.832 329.181 206.16 329.181 205.136H333.149C333.149 207.664 330.845 209.488 327.645 209.488ZM316.733 211.088H323.037V225.264H323.357L330.877 211.088H338.109V234H331.805V219.792H331.485L323.965 234H316.733V211.088ZM339.877 234V228.688C342.661 228.688 343.717 227.568 343.973 224.336L345.029 211.088H363.045V234H356.293V216.4H351.397L350.661 225.104C350.181 231.248 346.693 234 339.877 234ZM365.883 234V211.088H382.555V216.624H372.635V234H365.883ZM381.236 234L388.436 211.088H398.356L405.524 234H398.58L397.492 230.512H389.268L388.18 234H381.236ZM390.612 225.712H396.18L393.556 216.816H393.236L390.612 225.712ZM417.789 209.488C414.589 209.488 412.285 207.664 412.285 205.136H416.253C416.253 206.16 416.861 206.832 417.789 206.832C418.717 206.832 419.325 206.16 419.325 205.136H423.293C423.293 207.664 420.989 209.488 417.789 209.488ZM406.877 211.088H413.181V225.264H413.501L421.021 211.088H428.253V234H421.949V219.792H421.629L414.109 234H406.877V211.088ZM429.924 238.8V228.688H432.1C433.796 227.376 434.884 225.424 435.268 222.192L436.548 211.088H453.892V228.688H457.028V238.8H451.716V234H435.268V238.8H429.924ZM439.044 228.688H447.14V216.4H442.564L441.7 223.088C441.412 225.424 440.388 227.216 439.044 228.368V228.688Z"/>
</mask>
<path d="M260.655 234.48C253.423 234.48 248.175 229.648 248.175 222.544C248.175 215.44 253.423 210.64 260.655 210.64C266.799 210.64 271.663 214.288 272.335 219.664L266.095 220.336C265.551 217.904 263.375 216.144 260.847 216.144C257.327 216.144 254.959 218.704 254.959 222.544C254.959 226.384 257.359 228.944 260.815 228.944C263.311 228.944 265.551 227.216 266.095 224.816L272.399 225.552C271.791 230.864 266.927 234.48 260.655 234.48ZM279.622 234V216.624H272.454V211.088H293.542V216.624H286.374V234H279.622ZM291.092 234L298.292 211.088H308.212L315.38 234H308.436L307.348 230.512H299.124L298.036 234H291.092ZM300.468 225.712H306.036L303.412 216.816H303.092L300.468 225.712ZM327.645 209.488C324.445 209.488 322.141 207.664 322.141 205.136H326.109C326.109 206.16 326.717 206.832 327.645 206.832C328.573 206.832 329.181 206.16 329.181 205.136H333.149C333.149 207.664 330.845 209.488 327.645 209.488ZM316.733 211.088H323.037V225.264H323.357L330.877 211.088H338.109V234H331.805V219.792H331.485L323.965 234H316.733V211.088ZM339.877 234V228.688C342.661 228.688 343.717 227.568 343.973 224.336L345.029 211.088H363.045V234H356.293V216.4H351.397L350.661 225.104C350.181 231.248 346.693 234 339.877 234ZM365.883 234V211.088H382.555V216.624H372.635V234H365.883ZM381.236 234L388.436 211.088H398.356L405.524 234H398.58L397.492 230.512H389.268L388.18 234H381.236ZM390.612 225.712H396.18L393.556 216.816H393.236L390.612 225.712ZM417.789 209.488C414.589 209.488 412.285 207.664 412.285 205.136H416.253C416.253 206.16 416.861 206.832 417.789 206.832C418.717 206.832 419.325 206.16 419.325 205.136H423.293C423.293 207.664 420.989 209.488 417.789 209.488ZM406.877 211.088H413.181V225.264H413.501L421.021 211.088H428.253V234H421.949V219.792H421.629L414.109 234H406.877V211.088ZM429.924 238.8V228.688H432.1C433.796 227.376 434.884 225.424 435.268 222.192L436.548 211.088H453.892V228.688H457.028V238.8H451.716V234H435.268V238.8H429.924ZM439.044 228.688H447.14V216.4H442.564L441.7 223.088C441.412 225.424 440.388 227.216 439.044 228.368V228.688Z" fill="#202020"/>
<path d="M272.335 219.664L273.834 233.584L287.993 232.059L286.227 217.928L272.335 219.664ZM266.095 220.336L252.432 223.392L255.162 235.594L267.594 234.256L266.095 220.336ZM266.095 224.816L267.718 210.91L255.222 209.452L252.441 221.721L266.095 224.816ZM272.399 225.552L286.308 227.144L287.896 213.266L274.022 211.646L272.399 225.552ZM260.655 220.48C260.182 220.48 260.64 220.358 261.323 221.005C261.64 221.305 261.883 221.666 262.031 222.021C262.178 222.374 262.175 222.581 262.175 222.544H234.175C234.175 229.701 236.899 236.444 242.083 241.347C247.198 246.186 253.896 248.48 260.655 248.48V220.48ZM262.175 222.544C262.175 222.507 262.178 222.72 262.027 223.081C261.875 223.445 261.627 223.813 261.304 224.117C260.611 224.77 260.156 224.64 260.655 224.64V196.64C253.922 196.64 247.227 198.91 242.102 203.739C236.903 208.637 234.175 215.383 234.175 222.544H262.175ZM260.655 224.64C260.992 224.64 260.668 224.736 260.034 224.25C259.712 224.004 259.341 223.624 259.026 223.089C258.706 222.545 258.512 221.955 258.443 221.4L286.227 217.928C284.473 203.895 272.06 196.64 260.655 196.64V224.64ZM270.836 205.744L264.596 206.416L267.594 234.256L273.834 233.584L270.836 205.744ZM279.757 217.28C277.785 208.461 269.939 202.144 260.847 202.144V230.144C256.81 230.144 253.317 227.347 252.432 223.392L279.757 217.28ZM260.847 202.144C255.525 202.144 250.198 204.173 246.287 208.417C242.469 212.561 240.959 217.755 240.959 222.544H268.959C268.959 223.493 268.633 225.487 266.879 227.391C265.032 229.395 262.648 230.144 260.847 230.144V202.144ZM240.959 222.544C240.959 227.382 242.505 232.558 246.295 236.671C250.166 240.872 255.462 242.944 260.815 242.944V214.944C262.712 214.944 265.08 215.736 266.887 217.697C268.613 219.57 268.959 221.546 268.959 222.544H240.959ZM260.815 242.944C269.554 242.944 277.694 236.973 279.749 227.911L252.441 221.721C253.407 217.459 257.068 214.944 260.815 214.944V242.944ZM264.471 238.722L270.775 239.458L274.022 211.646L267.718 210.91L264.471 238.722ZM258.49 223.96C258.561 223.338 258.773 222.683 259.126 222.084C259.471 221.497 259.876 221.091 260.213 220.836C260.871 220.339 261.15 220.48 260.655 220.48V248.48C271.912 248.48 284.67 241.457 286.308 227.144L258.49 223.96ZM279.622 234H265.622V248H279.622V234ZM279.622 216.624H293.622V202.624H279.622V216.624ZM272.454 216.624H258.454V230.624H272.454V216.624ZM272.454 211.088V197.088H258.454V211.088H272.454ZM293.542 211.088H307.542V197.088H293.542V211.088ZM293.542 216.624V230.624H307.542V216.624H293.542ZM286.374 216.624V202.624H272.374V216.624H286.374ZM286.374 234V248H300.374V234H286.374ZM293.622 234V216.624H265.622V234H293.622ZM279.622 202.624H272.454V230.624H279.622V202.624ZM286.454 216.624V211.088H258.454V216.624H286.454ZM272.454 225.088H293.542V197.088H272.454V225.088ZM279.542 211.088V216.624H307.542V211.088H279.542ZM293.542 202.624H286.374V230.624H293.542V202.624ZM272.374 216.624V234H300.374V216.624H272.374ZM286.374 220H279.622V248H286.374V220ZM291.092 234L277.736 229.803L272.017 248H291.092V234ZM298.292 211.088V197.088H288.016L284.936 206.891L298.292 211.088ZM308.212 211.088L321.573 206.908L318.501 197.088H308.212V211.088ZM315.38 234V248H334.429L328.741 229.82L315.38 234ZM308.436 234L295.071 238.169L298.138 248H308.436V234ZM307.348 230.512L320.713 226.343L317.646 216.512H307.348V230.512ZM299.124 230.512V216.512H288.826L285.759 226.343L299.124 230.512ZM298.036 234V248H308.334L311.401 238.169L298.036 234ZM300.468 225.712L287.04 221.751L281.742 239.712H300.468V225.712ZM306.036 225.712V239.712H324.762L319.464 221.751L306.036 225.712ZM303.412 216.816L316.84 212.855L313.879 202.816H303.412V216.816ZM303.092 216.816V202.816H292.625L289.664 212.855L303.092 216.816ZM304.448 238.197L311.648 215.285L284.936 206.891L277.736 229.803L304.448 238.197ZM298.292 225.088H308.212V197.088H298.292V225.088ZM294.85 215.268L302.018 238.18L328.741 229.82L321.573 206.908L294.85 215.268ZM315.38 220H308.436V248H315.38V220ZM321.801 229.831L320.713 226.343L293.983 234.681L295.071 238.169L321.801 229.831ZM307.348 216.512H299.124V244.512H307.348V216.512ZM285.759 226.343L284.671 229.831L311.401 238.169L312.489 234.681L285.759 226.343ZM298.036 220H291.092V248H298.036V220ZM300.468 239.712H306.036V211.712H300.468V239.712ZM319.464 221.751L316.84 212.855L289.984 220.777L292.608 229.673L319.464 221.751ZM303.412 202.816H303.092V230.816H303.412V202.816ZM289.664 212.855L287.04 221.751L313.896 229.673L316.52 220.777L289.664 212.855ZM322.141 205.136V191.136H308.141V205.136H322.141ZM326.109 205.136H340.109V191.136H326.109V205.136ZM329.181 205.136V191.136H315.181V205.136H329.181ZM333.149 205.136H347.149V191.136H333.149V205.136ZM316.733 211.088V197.088H302.733V211.088H316.733ZM323.037 211.088H337.037V197.088H323.037V211.088ZM323.037 225.264H309.037V239.264H323.037V225.264ZM323.357 225.264V239.264H331.779L335.725 231.825L323.357 225.264ZM330.877 211.088V197.088H322.456L318.51 204.527L330.877 211.088ZM338.109 211.088H352.109V197.088H338.109V211.088ZM338.109 234V248H352.109V234H338.109ZM331.805 234H317.805V248H331.805V234ZM331.805 219.792H345.805V205.792H331.805V219.792ZM331.485 219.792V205.792H323.055L319.112 213.243L331.485 219.792ZM323.965 234V248H332.396L336.339 240.549L323.965 234ZM316.733 234H302.733V248H316.733V234ZM327.645 195.488C328.612 195.488 330.459 195.761 332.379 197.28C334.478 198.94 336.141 201.773 336.141 205.136H308.141C308.141 218.278 319.951 223.488 327.645 223.488V195.488ZM322.141 219.136H326.109V191.136H322.141V219.136ZM312.109 205.136C312.109 208.382 313.1 212.394 316.151 215.764C319.325 219.269 323.618 220.832 327.645 220.832V192.832C330.745 192.832 334.27 194.059 336.908 196.972C339.423 199.75 340.109 202.914 340.109 205.136H312.109ZM327.645 220.832C331.673 220.832 335.966 219.269 339.14 215.764C342.191 212.394 343.181 208.382 343.181 205.136H315.181C315.181 202.914 315.868 199.75 318.383 196.972C321.021 194.059 324.546 192.832 327.645 192.832V220.832ZM329.181 219.136H333.149V191.136H329.181V219.136ZM319.149 205.136C319.149 201.773 320.813 198.94 322.912 197.28C324.832 195.761 326.679 195.488 327.645 195.488V223.488C335.339 223.488 347.149 218.278 347.149 205.136H319.149ZM316.733 225.088H323.037V197.088H316.733V225.088ZM309.037 211.088V225.264H337.037V211.088H309.037ZM323.037 239.264H323.357V211.264H323.037V239.264ZM335.725 231.825L343.245 217.649L318.51 204.527L310.99 218.703L335.725 231.825ZM330.877 225.088H338.109V197.088H330.877V225.088ZM324.109 211.088V234H352.109V211.088H324.109ZM338.109 220H331.805V248H338.109V220ZM345.805 234V219.792H317.805V234H345.805ZM331.805 205.792H331.485V233.792H331.805V205.792ZM319.112 213.243L311.592 227.451L336.339 240.549L343.859 226.341L319.112 213.243ZM323.965 220H316.733V248H323.965V220ZM330.733 234V211.088H302.733V234H330.733ZM339.877 234H325.877V248H339.877V234ZM339.877 228.688V214.688H325.877V228.688H339.877ZM343.973 224.336L330.017 223.224L330.016 223.231L343.973 224.336ZM345.029 211.088V197.088H332.1L331.073 209.976L345.029 211.088ZM363.045 211.088H377.045V197.088H363.045V211.088ZM363.045 234V248H377.045V234H363.045ZM356.293 234H342.293V248H356.293V234ZM356.293 216.4H370.293V202.4H356.293V216.4ZM351.397 216.4V202.4H338.53L337.446 215.22L351.397 216.4ZM350.661 225.104L336.71 223.924L336.707 223.969L336.703 224.014L350.661 225.104ZM353.877 234V228.688H325.877V234H353.877ZM339.877 242.688C342.786 242.688 348.513 242.156 353.066 237.321C357.134 233 357.744 227.772 357.929 225.441L330.016 223.231C329.945 224.132 329.899 221.08 332.68 218.127C335.944 214.66 339.752 214.688 339.877 214.688V242.688ZM357.928 225.448L358.984 212.2L331.073 209.976L330.017 223.224L357.928 225.448ZM345.029 225.088H363.045V197.088H345.029V225.088ZM349.045 211.088V234H377.045V211.088H349.045ZM363.045 220H356.293V248H363.045V220ZM370.293 234V216.4H342.293V234H370.293ZM356.293 202.4H351.397V230.4H356.293V202.4ZM337.446 215.22L336.71 223.924L364.611 226.284L365.347 217.58L337.446 215.22ZM336.703 224.014C336.677 224.352 336.652 224.041 336.948 223.378C337.281 222.633 337.884 221.751 338.793 221.01C340.537 219.586 341.7 220 339.877 220V248C344.869 248 351.184 247.038 356.497 242.702C362.15 238.089 364.186 231.73 364.618 226.194L336.703 224.014ZM365.883 234H351.883V248H365.883V234ZM365.883 211.088V197.088H351.883V211.088H365.883ZM382.555 211.088H396.555V197.088H382.555V211.088ZM382.555 216.624V230.624H396.555V216.624H382.555ZM372.635 216.624V202.624H358.635V216.624H372.635ZM372.635 234V248H386.635V234H372.635ZM379.883 234V211.088H351.883V234H379.883ZM365.883 225.088H382.555V197.088H365.883V225.088ZM368.555 211.088V216.624H396.555V211.088H368.555ZM382.555 202.624H372.635V230.624H382.555V202.624ZM358.635 216.624V234H386.635V216.624H358.635ZM372.635 220H365.883V248H372.635V220ZM381.236 234L367.88 229.803L362.161 248H381.236V234ZM388.436 211.088V197.088H378.16L375.08 206.891L388.436 211.088ZM398.356 211.088L411.717 206.908L408.645 197.088H398.356V211.088ZM405.524 234V248H424.573L418.885 229.82L405.524 234ZM398.58 234L385.215 238.169L388.281 248H398.58V234ZM397.492 230.512L410.857 226.343L407.79 216.512H397.492V230.512ZM389.268 230.512V216.512H378.969L375.903 226.343L389.268 230.512ZM388.18 234V248H398.478L401.545 238.169L388.18 234ZM390.612 225.712L377.184 221.751L371.886 239.712H390.612V225.712ZM396.18 225.712V239.712H414.905L409.608 221.751L396.18 225.712ZM393.556 216.816L406.984 212.855L404.022 202.816H393.556V216.816ZM393.236 216.816V202.816H382.769L379.808 212.855L393.236 216.816ZM394.592 238.197L401.792 215.285L375.08 206.891L367.88 229.803L394.592 238.197ZM388.436 225.088H398.356V197.088H388.436V225.088ZM384.994 215.268L392.162 238.18L418.885 229.82L411.717 206.908L384.994 215.268ZM405.524 220H398.58V248H405.524V220ZM411.945 229.831L410.857 226.343L384.127 234.681L385.215 238.169L411.945 229.831ZM397.492 216.512H389.268V244.512H397.492V216.512ZM375.903 226.343L374.815 229.831L401.545 238.169L402.633 234.681L375.903 226.343ZM388.18 220H381.236V248H388.18V220ZM390.612 239.712H396.18V211.712H390.612V239.712ZM409.608 221.751L406.984 212.855L380.128 220.777L382.752 229.673L409.608 221.751ZM393.556 202.816H393.236V230.816H393.556V202.816ZM379.808 212.855L377.184 221.751L404.04 229.673L406.664 220.777L379.808 212.855ZM412.285 205.136V191.136H398.285V205.136H412.285ZM416.253 205.136H430.253V191.136H416.253V205.136ZM419.325 205.136V191.136H405.325V205.136H419.325ZM423.293 205.136H437.293V191.136H423.293V205.136ZM406.877 211.088V197.088H392.877V211.088H406.877ZM413.181 211.088H427.181V197.088H413.181V211.088ZM413.181 225.264H399.181V239.264H413.181V225.264ZM413.501 225.264V239.264H421.922L425.869 231.825L413.501 225.264ZM421.021 211.088V197.088H412.6L408.654 204.527L421.021 211.088ZM428.253 211.088H442.253V197.088H428.253V211.088ZM428.253 234V248H442.253V234H428.253ZM421.949 234H407.949V248H421.949V234ZM421.949 219.792H435.949V205.792H421.949V219.792ZM421.629 219.792V205.792H413.199L409.255 213.243L421.629 219.792ZM414.109 234V248H422.539L426.483 240.549L414.109 234ZM406.877 234H392.877V248H406.877V234ZM417.789 195.488C418.756 195.488 420.603 195.761 422.522 197.28C424.621 198.94 426.285 201.773 426.285 205.136H398.285C398.285 218.278 410.095 223.488 417.789 223.488V195.488ZM412.285 219.136H416.253V191.136H412.285V219.136ZM402.253 205.136C402.253 208.382 403.244 212.394 406.295 215.764C409.468 219.269 413.762 220.832 417.789 220.832V192.832C420.889 192.832 424.414 194.059 427.051 196.972C429.567 199.75 430.253 202.914 430.253 205.136H402.253ZM417.789 220.832C421.817 220.832 426.11 219.269 429.283 215.764C432.335 212.394 433.325 208.382 433.325 205.136H405.325C405.325 202.914 406.012 199.75 408.527 196.972C411.164 194.059 414.69 192.832 417.789 192.832V220.832ZM419.325 219.136H423.293V191.136H419.325V219.136ZM409.293 205.136C409.293 201.773 410.957 198.94 413.056 197.28C414.976 195.761 416.822 195.488 417.789 195.488V223.488C425.483 223.488 437.293 218.278 437.293 205.136H409.293ZM406.877 225.088H413.181V197.088H406.877V225.088ZM399.181 211.088V225.264H427.181V211.088H399.181ZM413.181 239.264H413.501V211.264H413.181V239.264ZM425.869 231.825L433.389 217.649L408.654 204.527L401.134 218.703L425.869 231.825ZM421.021 225.088H428.253V197.088H421.021V225.088ZM414.253 211.088V234H442.253V211.088H414.253ZM428.253 220H421.949V248H428.253V220ZM435.949 234V219.792H407.949V234H435.949ZM421.949 205.792H421.629V233.792H421.949V205.792ZM409.255 213.243L401.735 227.451L426.483 240.549L434.003 226.341L409.255 213.243ZM414.109 220H406.877V248H414.109V220ZM420.877 234V211.088H392.877V234H420.877ZM429.924 238.8H415.924V252.8H429.924V238.8ZM429.924 228.688V214.688H415.924V228.688H429.924ZM432.1 228.688V242.688H436.883L440.667 239.761L432.1 228.688ZM435.268 222.192L449.171 223.844L449.173 223.819L449.176 223.795L435.268 222.192ZM436.548 211.088V197.088H424.07L422.64 209.485L436.548 211.088ZM453.892 211.088H467.892V197.088H453.892V211.088ZM453.892 228.688H439.892V242.688H453.892V228.688ZM457.028 228.688H471.028V214.688H457.028V228.688ZM457.028 238.8V252.8H471.028V238.8H457.028ZM451.716 238.8H437.716V252.8H451.716V238.8ZM451.716 234H465.716V220H451.716V234ZM435.268 234V220H421.268V234H435.268ZM435.268 238.8V252.8H449.268V238.8H435.268ZM439.044 228.688H425.044V242.688H439.044V228.688ZM447.14 228.688V242.688H461.14V228.688H447.14ZM447.14 216.4H461.14V202.4H447.14V216.4ZM442.564 216.4V202.4H430.257L428.68 214.606L442.564 216.4ZM441.7 223.088L427.816 221.294L427.811 221.335L427.806 221.375L441.7 223.088ZM439.044 228.368L429.933 217.738L425.044 221.929V228.368H439.044ZM443.924 238.8V228.688H415.924V238.8H443.924ZM429.924 242.688H432.1V214.688H429.924V242.688ZM440.667 239.761C446.066 235.584 448.466 229.771 449.171 223.844L421.366 220.54C421.314 220.976 421.297 220.609 421.673 219.861C422.104 219.007 422.77 218.206 423.534 217.615L440.667 239.761ZM449.176 223.795L450.456 212.691L422.64 209.485L421.36 220.589L449.176 223.795ZM436.548 225.088H453.892V197.088H436.548V225.088ZM439.892 211.088V228.688H467.892V211.088H439.892ZM453.892 242.688H457.028V214.688H453.892V242.688ZM443.028 228.688V238.8H471.028V228.688H443.028ZM457.028 224.8H451.716V252.8H457.028V224.8ZM465.716 238.8V234H437.716V238.8H465.716ZM451.716 220H435.268V248H451.716V220ZM421.268 234V238.8H449.268V234H421.268ZM435.268 224.8H429.924V252.8H435.268V224.8ZM439.044 242.688H447.14V214.688H439.044V242.688ZM461.14 228.688V216.4H433.14V228.688H461.14ZM447.14 202.4H442.564V230.4H447.14V202.4ZM428.68 214.606L427.816 221.294L455.585 224.882L456.449 218.194L428.68 214.606ZM427.806 221.375C427.913 220.501 428.438 219.02 429.933 217.738L448.155 238.998C452.339 235.412 454.911 230.347 455.595 224.801L427.806 221.375ZM425.044 228.368V228.688H453.044V228.368H425.044Z" fill="white" mask="url(#path-7-outside-1_858_2)"/>
<defs>
<clipPath id="clip0_858_2">
<rect width="705" height="186" fill="white"/>
</clipPath>
</defs>
</svg>
