<svg width="1440" height="903" viewBox="0 0 1440 903" fill="none" xmlns="http://www.w3.org/2000/svg">
<g clip-path="url(#clip0_838_484)">
<rect width="1440" height="903" fill="white"/>
<path d="M272.829 -1521.47L-1251.47 2.82929" stroke="#202020" stroke-width="4"/>
<path d="M294.043 -1500.26L-1230.26 24.0425" stroke="#202020" stroke-width="4"/>
<path d="M315.256 -1479.05L-1209.05 45.2558" stroke="#202020" stroke-width="4"/>
<path d="M336.469 -1457.83L-1187.83 66.4689" stroke="#202020" stroke-width="4"/>
<path d="M357.682 -1436.62L-1166.62 87.6822" stroke="#202020" stroke-width="4"/>
<path d="M378.895 -1415.41L-1145.41 108.895" stroke="#202020" stroke-width="4"/>
<path d="M400.109 -1394.19L-1124.19 130.109" stroke="#202020" stroke-width="4"/>
<path d="M421.322 -1372.98L-1102.98 151.322" stroke="#202020" stroke-width="4"/>
<path d="M442.535 -1351.77L-1081.77 172.535" stroke="#202020" stroke-width="4"/>
<path d="M463.748 -1330.55L-1060.55 193.748" stroke="#202020" stroke-width="4"/>
<path d="M484.961 -1309.34L-1039.34 214.961" stroke="#202020" stroke-width="4"/>
<path d="M506.175 -1288.13L-1018.13 236.175" stroke="#202020" stroke-width="4"/>
<path d="M527.388 -1266.91L-996.913 257.388" stroke="#202020" stroke-width="4"/>
<path d="M548.601 -1245.7L-975.7 278.601" stroke="#202020" stroke-width="4"/>
<path d="M569.814 -1224.49L-954.487 299.814" stroke="#202020" stroke-width="4"/>
<path d="M591.027 -1203.27L-933.274 321.027" stroke="#202020" stroke-width="4"/>
<path d="M612.241 -1182.06L-912.06 342.241" stroke="#202020" stroke-width="4"/>
<path d="M633.454 -1160.85L-890.847 363.454" stroke="#202020" stroke-width="4"/>
<path d="M654.667 -1139.63L-869.634 384.667" stroke="#202020" stroke-width="4"/>
<path d="M675.88 -1118.42L-848.421 405.88" stroke="#202020" stroke-width="4"/>
<path d="M697.094 -1097.21L-827.208 427.093" stroke="#202020" stroke-width="4"/>
<path d="M718.307 -1075.99L-805.995 448.307" stroke="#202020" stroke-width="4"/>
<path d="M739.52 -1054.78L-784.781 469.52" stroke="#202020" stroke-width="4"/>
<path d="M760.733 -1033.57L-763.568 490.733" stroke="#202020" stroke-width="4"/>
<path d="M781.946 -1012.35L-742.355 511.946" stroke="#202020" stroke-width="4"/>
<path d="M803.159 -991.142L-721.142 533.159" stroke="#202020" stroke-width="4"/>
<path d="M824.373 -969.929L-699.929 554.373" stroke="#202020" stroke-width="4"/>
<path d="M845.586 -948.715L-678.715 575.586" stroke="#202020" stroke-width="4"/>
<path d="M866.799 -927.502L-657.502 596.799" stroke="#202020" stroke-width="4"/>
<path d="M888.012 -906.289L-636.289 618.012" stroke="#202020" stroke-width="4"/>
<path d="M909.226 -885.076L-615.076 639.225" stroke="#202020" stroke-width="4"/>
<path d="M930.439 -863.863L-593.862 660.439" stroke="#202020" stroke-width="4"/>
<path d="M951.652 -842.649L-572.649 681.652" stroke="#202020" stroke-width="4"/>
<path d="M972.865 -821.436L-551.436 702.865" stroke="#202020" stroke-width="4"/>
<path d="M994.078 -800.223L-530.223 724.078" stroke="#202020" stroke-width="4"/>
<path d="M1015.29 -779.01L-509.01 745.291" stroke="#202020" stroke-width="4"/>
<path d="M1036.5 -757.797L-487.797 766.505" stroke="#202020" stroke-width="4"/>
<path d="M1057.72 -736.583L-466.583 787.718" stroke="#202020" stroke-width="4"/>
<path d="M1078.93 -715.37L-445.37 808.931" stroke="#202020" stroke-width="4"/>
<path d="M1100.14 -694.157L-424.157 830.144" stroke="#202020" stroke-width="4"/>
<path d="M1121.36 -672.944L-402.944 851.357" stroke="#202020" stroke-width="4"/>
<path d="M1142.57 -651.731L-381.73 872.571" stroke="#202020" stroke-width="4"/>
<path d="M1163.78 -630.517L-360.517 893.784" stroke="#202020" stroke-width="4"/>
<path d="M1185 -609.304L-339.304 914.997" stroke="#202020" stroke-width="4"/>
<path d="M1206.21 -588.091L-318.091 936.21" stroke="#202020" stroke-width="4"/>
<path d="M1227.42 -566.878L-296.878 957.423" stroke="#202020" stroke-width="4"/>
<path d="M1248.64 -545.665L-275.664 978.637" stroke="#202020" stroke-width="4"/>
<path d="M1269.85 -524.451L-254.451 999.85" stroke="#202020" stroke-width="4"/>
<path d="M1291.06 -503.238L-233.238 1021.06" stroke="#202020" stroke-width="4"/>
<path d="M1312.28 -482.025L-212.025 1042.28" stroke="#202020" stroke-width="4"/>
<path d="M1333.49 -460.812L-190.812 1063.49" stroke="#202020" stroke-width="4"/>
<path d="M1354.7 -439.599L-169.599 1084.7" stroke="#202020" stroke-width="4"/>
<path d="M1375.92 -418.385L-148.385 1105.92" stroke="#202020" stroke-width="4"/>
<path d="M1397.13 -397.172L-127.172 1127.13" stroke="#202020" stroke-width="4"/>
<path d="M1418.34 -375.959L-105.959 1148.34" stroke="#202020" stroke-width="4"/>
<path d="M1439.56 -354.746L-84.7455 1169.56" stroke="#202020" stroke-width="4"/>
<path d="M1460.77 -333.533L-63.5324 1190.77" stroke="#202020" stroke-width="4"/>
<path d="M1481.98 -312.319L-42.3193 1211.98" stroke="#202020" stroke-width="4"/>
<path d="M1503.2 -291.106L-21.1061 1233.2" stroke="#202020" stroke-width="4"/>
<path d="M1524.41 -269.893L0.107238 1254.41" stroke="#202020" stroke-width="4"/>
<path d="M1545.62 -248.68L21.3204 1275.62" stroke="#202020" stroke-width="4"/>
<path d="M1566.83 -227.466L42.5335 1296.83" stroke="#202020" stroke-width="4"/>
<path d="M1588.05 -206.253L63.7469 1318.05" stroke="#202020" stroke-width="4"/>
<path d="M1609.26 -185.04L84.96 1339.26" stroke="#202020" stroke-width="4"/>
<path d="M1630.47 -163.827L106.173 1360.47" stroke="#202020" stroke-width="4"/>
<path d="M1651.69 -142.614L127.386 1381.69" stroke="#202020" stroke-width="4"/>
<path d="M1672.9 -121.4L148.6 1402.9" stroke="#202020" stroke-width="4"/>
<path d="M1694.11 -100.187L169.813 1424.11" stroke="#202020" stroke-width="4"/>
<path d="M1715.33 -78.9741L191.026 1445.33" stroke="#202020" stroke-width="4"/>
<path d="M1736.54 -57.7609L212.239 1466.54" stroke="#202020" stroke-width="4"/>
<path d="M1757.75 -36.5477L233.452 1487.75" stroke="#202020" stroke-width="4"/>
<path d="M1778.97 -15.3345L254.666 1508.97" stroke="#202020" stroke-width="4"/>
<path d="M1800.18 5.87874L275.879 1530.18" stroke="#202020" stroke-width="4"/>
<path d="M1821.39 27.0919L297.092 1551.39" stroke="#202020" stroke-width="4"/>
<path d="M1842.61 48.3051L318.305 1572.61" stroke="#202020" stroke-width="4"/>
<path d="M1863.82 69.5184L339.518 1593.82" stroke="#202020" stroke-width="4"/>
<path d="M1885.03 90.7316L360.732 1615.03" stroke="#202020" stroke-width="4"/>
<path d="M1906.25 111.945L381.945 1636.25" stroke="#202020" stroke-width="4"/>
<path d="M1927.46 133.158L403.158 1657.46" stroke="#202020" stroke-width="4"/>
<path d="M1948.67 154.371L424.371 1678.67" stroke="#202020" stroke-width="4"/>
<path d="M1969.89 175.584L445.585 1699.89" stroke="#202020" stroke-width="4"/>
<path d="M1991.1 196.798L466.798 1721.1" stroke="#202020" stroke-width="4"/>
<path d="M2012.31 218.011L488.011 1742.31" stroke="#202020" stroke-width="4"/>
<path d="M2033.53 239.224L509.224 1763.53" stroke="#202020" stroke-width="4"/>
<path d="M2054.74 260.437L530.437 1784.74" stroke="#202020" stroke-width="4"/>
<path d="M2075.95 281.65L551.65 1805.95" stroke="#202020" stroke-width="4"/>
<path d="M2097.16 302.864L572.864 1827.16" stroke="#202020" stroke-width="4"/>
<path d="M2118.38 324.077L594.077 1848.38" stroke="#202020" stroke-width="4"/>
<path d="M2139.59 345.29L615.29 1869.59" stroke="#202020" stroke-width="4"/>
<path d="M2160.8 366.503L636.503 1890.8" stroke="#202020" stroke-width="4"/>
<path d="M2182.02 387.716L657.716 1912.02" stroke="#202020" stroke-width="4"/>
<path d="M2203.23 408.93L678.93 1933.23" stroke="#202020" stroke-width="4"/>
<path d="M2224.44 430.143L700.143 1954.44" stroke="#202020" stroke-width="4"/>
<path d="M2245.66 451.356L721.356 1975.66" stroke="#202020" stroke-width="4"/>
<path d="M2266.87 472.569L742.569 1996.87" stroke="#202020" stroke-width="4"/>
<path d="M2288.08 493.782L763.783 2018.08" stroke="#202020" stroke-width="4"/>
<path d="M2309.3 514.996L784.996 2039.3" stroke="#202020" stroke-width="4"/>
<path d="M2330.51 536.209L806.209 2060.51" stroke="#202020" stroke-width="4"/>
<path d="M2351.72 557.422L827.422 2081.72" stroke="#202020" stroke-width="4"/>
<path d="M2372.94 578.635L848.635 2102.94" stroke="#202020" stroke-width="4"/>
<path d="M2394.15 599.848L869.848 2124.15" stroke="#202020" stroke-width="4"/>
<path d="M2415.36 621.062L891.062 2145.36" stroke="#202020" stroke-width="4"/>
<path d="M2436.58 642.275L912.275 2166.58" stroke="#202020" stroke-width="4"/>
<path d="M2457.79 663.488L933.488 2187.79" stroke="#202020" stroke-width="4"/>
<path d="M2479 684.701L954.701 2209" stroke="#202020" stroke-width="4"/>
<path d="M2500.22 705.914L975.915 2230.22" stroke="#202020" stroke-width="4"/>
<path d="M2521.43 727.128L997.128 2251.43" stroke="#202020" stroke-width="4"/>
<path d="M2542.64 748.341L1018.34 2272.64" stroke="#202020" stroke-width="4"/>
<path d="M2563.86 769.554L1039.55 2293.86" stroke="#202020" stroke-width="4"/>
<path d="M2585.07 790.767L1060.77 2315.07" stroke="#202020" stroke-width="4"/>
<path d="M2606.28 811.98L1081.98 2336.28" stroke="#202020" stroke-width="4"/>
<path d="M2627.5 833.194L1103.19 2357.49" stroke="#202020" stroke-width="4"/>
<path d="M2648.71 854.407L1124.41 2378.71" stroke="#202020" stroke-width="4"/>
<path d="M2669.92 875.62L1145.62 2399.92" stroke="#202020" stroke-width="4"/>
<path d="M2691.13 896.833L1166.83 2421.13" stroke="#202020" stroke-width="4"/>
<g clip-path="url(#clip1_838_484)">
<path d="M1073 507.673L1001.19 508L987.443 470.323L977.833 470.998L972.653 507.768L740.993 507.873L727.641 458.295L719.903 507.641L435.744 507.778L406.365 427.202L447.806 427.191L435.416 393.218L395.74 398.082L368 322L1006.32 322.011L1073 507.673Z" fill="white"/>
<path d="M995.086 337.868H949.004L928.241 491.973H958.793L963.836 456.132L998.173 453.737L1012.18 492.153L1050.43 491.973L995.086 337.858V337.868ZM967.06 433.3L973.541 387.246L990.001 431.296L967.05 433.3H967.06Z" fill="#202020"/>
<path d="M772.645 337.953L797.806 448.409L881.249 440.58L873.965 492.068H905.215L918.747 395.972L886.789 401.025L895.68 337.889L853.636 337.847L846.151 407.451L825.145 410.774L820.969 337.879L772.645 337.963V337.953Z" fill="#202020"/>
<path d="M619.428 337.868L675.639 491.984L706.244 491.889L723.444 382.129L753.066 492.068L851.162 491.9L855.073 463.834L778.883 468.572L746.797 337.879L698.537 337.9L690.978 431.718L667.551 337.879H619.428V337.868Z" fill="#202020"/>
<path d="M541.483 492.079L533.945 403.769L557.806 337.932H595.906L652.116 492.047L603.677 492.068L572.152 379.66L564.55 400.414L572.585 492.068H541.493L541.483 492.079Z" fill="#202020"/>
<path d="M406.249 380.873L390.571 337.868H462.195L474.733 372.232L489.903 370.502L493.92 337.879H535.478L510.952 405.119L518.574 492.005H446.781L428.936 443.081H470.377L478.169 464.457L485.241 408.316L458.864 411.545L445.925 376.041L406.238 380.905L406.249 380.873Z" fill="#202020"/>
</g>
<mask id="path-122-outside-1_838_484" maskUnits="userSpaceOnUse" x="602" y="513" width="238" height="62" fill="black">
<rect fill="white" x="602" y="513" width="238" height="62"/>
<path d="M628.655 556.48C621.423 556.48 616.175 551.648 616.175 544.544C616.175 537.44 621.423 532.64 628.655 532.64C634.799 532.64 639.663 536.288 640.335 541.664L634.095 542.336C633.551 539.904 631.375 538.144 628.847 538.144C625.327 538.144 622.959 540.704 622.959 544.544C622.959 548.384 625.359 550.944 628.815 550.944C631.311 550.944 633.551 549.216 634.095 546.816L640.399 547.552C639.791 552.864 634.927 556.48 628.655 556.48ZM647.622 556V538.624H640.454V533.088H661.542V538.624H654.374V556H647.622ZM659.092 556L666.292 533.088H676.212L683.38 556H676.436L675.348 552.512H667.124L666.036 556H659.092ZM668.468 547.712H674.036L671.412 538.816H671.092L668.468 547.712ZM695.645 531.488C692.445 531.488 690.141 529.664 690.141 527.136H694.109C694.109 528.16 694.717 528.832 695.645 528.832C696.573 528.832 697.181 528.16 697.181 527.136H701.149C701.149 529.664 698.845 531.488 695.645 531.488ZM684.733 533.088H691.037V547.264H691.357L698.877 533.088H706.109V556H699.805V541.792H699.485L691.965 556H684.733V533.088ZM707.877 556V550.688C710.661 550.688 711.717 549.568 711.973 546.336L713.029 533.088H731.045V556H724.293V538.4H719.397L718.661 547.104C718.181 553.248 714.693 556 707.877 556ZM733.883 556V533.088H750.555V538.624H740.635V556H733.883ZM749.236 556L756.436 533.088H766.356L773.524 556H766.58L765.492 552.512H757.268L756.18 556H749.236ZM758.612 547.712H764.18L761.556 538.816H761.236L758.612 547.712ZM785.789 531.488C782.589 531.488 780.285 529.664 780.285 527.136H784.253C784.253 528.16 784.861 528.832 785.789 528.832C786.717 528.832 787.325 528.16 787.325 527.136H791.293C791.293 529.664 788.989 531.488 785.789 531.488ZM774.877 533.088H781.181V547.264H781.501L789.021 533.088H796.253V556H789.949V541.792H789.629L782.109 556H774.877V533.088ZM797.924 560.8V550.688H800.1C801.796 549.376 802.884 547.424 803.268 544.192L804.548 533.088H821.892V550.688H825.028V560.8H819.716V556H803.268V560.8H797.924ZM807.044 550.688H815.14V538.4H810.564L809.7 545.088C809.412 547.424 808.388 549.216 807.044 550.368V550.688Z"/>
</mask>
<path d="M628.655 556.48C621.423 556.48 616.175 551.648 616.175 544.544C616.175 537.44 621.423 532.64 628.655 532.64C634.799 532.64 639.663 536.288 640.335 541.664L634.095 542.336C633.551 539.904 631.375 538.144 628.847 538.144C625.327 538.144 622.959 540.704 622.959 544.544C622.959 548.384 625.359 550.944 628.815 550.944C631.311 550.944 633.551 549.216 634.095 546.816L640.399 547.552C639.791 552.864 634.927 556.48 628.655 556.48ZM647.622 556V538.624H640.454V533.088H661.542V538.624H654.374V556H647.622ZM659.092 556L666.292 533.088H676.212L683.38 556H676.436L675.348 552.512H667.124L666.036 556H659.092ZM668.468 547.712H674.036L671.412 538.816H671.092L668.468 547.712ZM695.645 531.488C692.445 531.488 690.141 529.664 690.141 527.136H694.109C694.109 528.16 694.717 528.832 695.645 528.832C696.573 528.832 697.181 528.16 697.181 527.136H701.149C701.149 529.664 698.845 531.488 695.645 531.488ZM684.733 533.088H691.037V547.264H691.357L698.877 533.088H706.109V556H699.805V541.792H699.485L691.965 556H684.733V533.088ZM707.877 556V550.688C710.661 550.688 711.717 549.568 711.973 546.336L713.029 533.088H731.045V556H724.293V538.4H719.397L718.661 547.104C718.181 553.248 714.693 556 707.877 556ZM733.883 556V533.088H750.555V538.624H740.635V556H733.883ZM749.236 556L756.436 533.088H766.356L773.524 556H766.58L765.492 552.512H757.268L756.18 556H749.236ZM758.612 547.712H764.18L761.556 538.816H761.236L758.612 547.712ZM785.789 531.488C782.589 531.488 780.285 529.664 780.285 527.136H784.253C784.253 528.16 784.861 528.832 785.789 528.832C786.717 528.832 787.325 528.16 787.325 527.136H791.293C791.293 529.664 788.989 531.488 785.789 531.488ZM774.877 533.088H781.181V547.264H781.501L789.021 533.088H796.253V556H789.949V541.792H789.629L782.109 556H774.877V533.088ZM797.924 560.8V550.688H800.1C801.796 549.376 802.884 547.424 803.268 544.192L804.548 533.088H821.892V550.688H825.028V560.8H819.716V556H803.268V560.8H797.924ZM807.044 550.688H815.14V538.4H810.564L809.7 545.088C809.412 547.424 808.388 549.216 807.044 550.368V550.688Z" fill="#202020"/>
<path d="M640.335 541.664L641.834 555.584L655.993 554.059L654.227 539.928L640.335 541.664ZM634.095 542.336L620.432 545.392L623.162 557.594L635.594 556.256L634.095 542.336ZM634.095 546.816L635.718 532.91L623.222 531.452L620.441 543.721L634.095 546.816ZM640.399 547.552L654.308 549.144L655.896 535.266L642.022 533.646L640.399 547.552ZM628.655 542.48C628.182 542.48 628.64 542.358 629.323 543.005C629.64 543.305 629.883 543.666 630.031 544.021C630.178 544.374 630.175 544.581 630.175 544.544H602.175C602.175 551.701 604.899 558.444 610.083 563.347C615.198 568.186 621.896 570.48 628.655 570.48V542.48ZM630.175 544.544C630.175 544.507 630.178 544.72 630.027 545.081C629.875 545.445 629.627 545.813 629.304 546.117C628.611 546.77 628.156 546.64 628.655 546.64V518.64C621.922 518.64 615.227 520.91 610.102 525.739C604.903 530.637 602.175 537.383 602.175 544.544H630.175ZM628.655 546.64C628.992 546.64 628.668 546.736 628.034 546.25C627.712 546.004 627.341 545.624 627.026 545.089C626.706 544.545 626.512 543.955 626.443 543.4L654.227 539.928C652.473 525.895 640.06 518.64 628.655 518.64V546.64ZM638.836 527.744L632.596 528.416L635.594 556.256L641.834 555.584L638.836 527.744ZM647.757 539.28C645.785 530.461 637.939 524.144 628.847 524.144V552.144C624.81 552.144 621.317 549.347 620.432 545.392L647.757 539.28ZM628.847 524.144C623.525 524.144 618.198 526.173 614.287 530.417C610.469 534.561 608.959 539.755 608.959 544.544H636.959C636.959 545.493 636.633 547.487 634.879 549.391C633.032 551.395 630.648 552.144 628.847 552.144V524.144ZM608.959 544.544C608.959 549.382 610.505 554.558 614.295 558.671C618.166 562.872 623.462 564.944 628.815 564.944V536.944C630.712 536.944 633.08 537.736 634.887 539.697C636.613 541.57 636.959 543.546 636.959 544.544H608.959ZM628.815 564.944C637.554 564.944 645.694 558.973 647.749 549.911L620.441 543.721C621.407 539.459 625.068 536.944 628.815 536.944V564.944ZM632.471 560.722L638.775 561.458L642.022 533.646L635.718 532.91L632.471 560.722ZM626.49 545.96C626.561 545.338 626.773 544.683 627.126 544.084C627.471 543.497 627.876 543.091 628.213 542.836C628.871 542.339 629.15 542.48 628.655 542.48V570.48C639.912 570.48 652.67 563.457 654.308 549.144L626.49 545.96ZM647.622 556H633.622V570H647.622V556ZM647.622 538.624H661.622V524.624H647.622V538.624ZM640.454 538.624H626.454V552.624H640.454V538.624ZM640.454 533.088V519.088H626.454V533.088H640.454ZM661.542 533.088H675.542V519.088H661.542V533.088ZM661.542 538.624V552.624H675.542V538.624H661.542ZM654.374 538.624V524.624H640.374V538.624H654.374ZM654.374 556V570H668.374V556H654.374ZM661.622 556V538.624H633.622V556H661.622ZM647.622 524.624H640.454V552.624H647.622V524.624ZM654.454 538.624V533.088H626.454V538.624H654.454ZM640.454 547.088H661.542V519.088H640.454V547.088ZM647.542 533.088V538.624H675.542V533.088H647.542ZM661.542 524.624H654.374V552.624H661.542V524.624ZM640.374 538.624V556H668.374V538.624H640.374ZM654.374 542H647.622V570H654.374V542ZM659.092 556L645.736 551.803L640.017 570H659.092V556ZM666.292 533.088V519.088H656.016L652.936 528.891L666.292 533.088ZM676.212 533.088L689.573 528.908L686.501 519.088H676.212V533.088ZM683.38 556V570H702.429L696.741 551.82L683.38 556ZM676.436 556L663.071 560.169L666.138 570H676.436V556ZM675.348 552.512L688.713 548.343L685.646 538.512H675.348V552.512ZM667.124 552.512V538.512H656.826L653.759 548.343L667.124 552.512ZM666.036 556V570H676.334L679.401 560.169L666.036 556ZM668.468 547.712L655.04 543.751L649.742 561.712H668.468V547.712ZM674.036 547.712V561.712H692.762L687.464 543.751L674.036 547.712ZM671.412 538.816L684.84 534.855L681.879 524.816H671.412V538.816ZM671.092 538.816V524.816H660.625L657.664 534.855L671.092 538.816ZM672.448 560.197L679.648 537.285L652.936 528.891L645.736 551.803L672.448 560.197ZM666.292 547.088H676.212V519.088H666.292V547.088ZM662.85 537.268L670.018 560.18L696.741 551.82L689.573 528.908L662.85 537.268ZM683.38 542H676.436V570H683.38V542ZM689.801 551.831L688.713 548.343L661.983 556.681L663.071 560.169L689.801 551.831ZM675.348 538.512H667.124V566.512H675.348V538.512ZM653.759 548.343L652.671 551.831L679.401 560.169L680.489 556.681L653.759 548.343ZM666.036 542H659.092V570H666.036V542ZM668.468 561.712H674.036V533.712H668.468V561.712ZM687.464 543.751L684.84 534.855L657.984 542.777L660.608 551.673L687.464 543.751ZM671.412 524.816H671.092V552.816H671.412V524.816ZM657.664 534.855L655.04 543.751L681.896 551.673L684.52 542.777L657.664 534.855ZM690.141 527.136V513.136H676.141V527.136H690.141ZM694.109 527.136H708.109V513.136H694.109V527.136ZM697.181 527.136V513.136H683.181V527.136H697.181ZM701.149 527.136H715.149V513.136H701.149V527.136ZM684.733 533.088V519.088H670.733V533.088H684.733ZM691.037 533.088H705.037V519.088H691.037V533.088ZM691.037 547.264H677.037V561.264H691.037V547.264ZM691.357 547.264V561.264H699.779L703.725 553.825L691.357 547.264ZM698.877 533.088V519.088H690.456L686.51 526.527L698.877 533.088ZM706.109 533.088H720.109V519.088H706.109V533.088ZM706.109 556V570H720.109V556H706.109ZM699.805 556H685.805V570H699.805V556ZM699.805 541.792H713.805V527.792H699.805V541.792ZM699.485 541.792V527.792H691.055L687.112 535.243L699.485 541.792ZM691.965 556V570H700.396L704.339 562.549L691.965 556ZM684.733 556H670.733V570H684.733V556ZM695.645 517.488C696.612 517.488 698.459 517.761 700.379 519.28C702.478 520.94 704.141 523.773 704.141 527.136H676.141C676.141 540.278 687.951 545.488 695.645 545.488V517.488ZM690.141 541.136H694.109V513.136H690.141V541.136ZM680.109 527.136C680.109 530.382 681.1 534.394 684.151 537.764C687.325 541.269 691.618 542.832 695.645 542.832V514.832C698.745 514.832 702.27 516.059 704.908 518.972C707.423 521.75 708.109 524.914 708.109 527.136H680.109ZM695.645 542.832C699.673 542.832 703.966 541.269 707.14 537.764C710.191 534.394 711.181 530.382 711.181 527.136H683.181C683.181 524.914 683.868 521.75 686.383 518.972C689.021 516.059 692.546 514.832 695.645 514.832V542.832ZM697.181 541.136H701.149V513.136H697.181V541.136ZM687.149 527.136C687.149 523.773 688.813 520.94 690.912 519.28C692.832 517.761 694.679 517.488 695.645 517.488V545.488C703.339 545.488 715.149 540.278 715.149 527.136H687.149ZM684.733 547.088H691.037V519.088H684.733V547.088ZM677.037 533.088V547.264H705.037V533.088H677.037ZM691.037 561.264H691.357V533.264H691.037V561.264ZM703.725 553.825L711.245 539.649L686.51 526.527L678.99 540.703L703.725 553.825ZM698.877 547.088H706.109V519.088H698.877V547.088ZM692.109 533.088V556H720.109V533.088H692.109ZM706.109 542H699.805V570H706.109V542ZM713.805 556V541.792H685.805V556H713.805ZM699.805 527.792H699.485V555.792H699.805V527.792ZM687.112 535.243L679.592 549.451L704.339 562.549L711.859 548.341L687.112 535.243ZM691.965 542H684.733V570H691.965V542ZM698.733 556V533.088H670.733V556H698.733ZM707.877 556H693.877V570H707.877V556ZM707.877 550.688V536.688H693.877V550.688H707.877ZM711.973 546.336L698.017 545.224L698.016 545.231L711.973 546.336ZM713.029 533.088V519.088H700.1L699.073 531.976L713.029 533.088ZM731.045 533.088H745.045V519.088H731.045V533.088ZM731.045 556V570H745.045V556H731.045ZM724.293 556H710.293V570H724.293V556ZM724.293 538.4H738.293V524.4H724.293V538.4ZM719.397 538.4V524.4H706.53L705.446 537.22L719.397 538.4ZM718.661 547.104L704.71 545.924L704.707 545.969L704.703 546.014L718.661 547.104ZM721.877 556V550.688H693.877V556H721.877ZM707.877 564.688C710.786 564.688 716.513 564.156 721.066 559.321C725.134 555 725.744 549.772 725.929 547.441L698.016 545.231C697.945 546.132 697.899 543.08 700.68 540.127C703.944 536.66 707.752 536.688 707.877 536.688V564.688ZM725.928 547.448L726.984 534.2L699.073 531.976L698.017 545.224L725.928 547.448ZM713.029 547.088H731.045V519.088H713.029V547.088ZM717.045 533.088V556H745.045V533.088H717.045ZM731.045 542H724.293V570H731.045V542ZM738.293 556V538.4H710.293V556H738.293ZM724.293 524.4H719.397V552.4H724.293V524.4ZM705.446 537.22L704.71 545.924L732.611 548.284L733.347 539.58L705.446 537.22ZM704.703 546.014C704.677 546.352 704.652 546.041 704.948 545.378C705.281 544.633 705.884 543.751 706.793 543.01C708.537 541.586 709.7 542 707.877 542V570C712.869 570 719.184 569.038 724.497 564.702C730.15 560.089 732.186 553.73 732.618 548.194L704.703 546.014ZM733.883 556H719.883V570H733.883V556ZM733.883 533.088V519.088H719.883V533.088H733.883ZM750.555 533.088H764.555V519.088H750.555V533.088ZM750.555 538.624V552.624H764.555V538.624H750.555ZM740.635 538.624V524.624H726.635V538.624H740.635ZM740.635 556V570H754.635V556H740.635ZM747.883 556V533.088H719.883V556H747.883ZM733.883 547.088H750.555V519.088H733.883V547.088ZM736.555 533.088V538.624H764.555V533.088H736.555ZM750.555 524.624H740.635V552.624H750.555V524.624ZM726.635 538.624V556H754.635V538.624H726.635ZM740.635 542H733.883V570H740.635V542ZM749.236 556L735.88 551.803L730.161 570H749.236V556ZM756.436 533.088V519.088H746.16L743.08 528.891L756.436 533.088ZM766.356 533.088L779.717 528.908L776.645 519.088H766.356V533.088ZM773.524 556V570H792.573L786.885 551.82L773.524 556ZM766.58 556L753.215 560.169L756.281 570H766.58V556ZM765.492 552.512L778.857 548.343L775.79 538.512H765.492V552.512ZM757.268 552.512V538.512H746.969L743.903 548.343L757.268 552.512ZM756.18 556V570H766.478L769.545 560.169L756.18 556ZM758.612 547.712L745.184 543.751L739.886 561.712H758.612V547.712ZM764.18 547.712V561.712H782.905L777.608 543.751L764.18 547.712ZM761.556 538.816L774.984 534.855L772.022 524.816H761.556V538.816ZM761.236 538.816V524.816H750.769L747.808 534.855L761.236 538.816ZM762.592 560.197L769.792 537.285L743.08 528.891L735.88 551.803L762.592 560.197ZM756.436 547.088H766.356V519.088H756.436V547.088ZM752.994 537.268L760.162 560.18L786.885 551.82L779.717 528.908L752.994 537.268ZM773.524 542H766.58V570H773.524V542ZM779.945 551.831L778.857 548.343L752.127 556.681L753.215 560.169L779.945 551.831ZM765.492 538.512H757.268V566.512H765.492V538.512ZM743.903 548.343L742.815 551.831L769.545 560.169L770.633 556.681L743.903 548.343ZM756.18 542H749.236V570H756.18V542ZM758.612 561.712H764.18V533.712H758.612V561.712ZM777.608 543.751L774.984 534.855L748.128 542.777L750.752 551.673L777.608 543.751ZM761.556 524.816H761.236V552.816H761.556V524.816ZM747.808 534.855L745.184 543.751L772.04 551.673L774.664 542.777L747.808 534.855ZM780.285 527.136V513.136H766.285V527.136H780.285ZM784.253 527.136H798.253V513.136H784.253V527.136ZM787.325 527.136V513.136H773.325V527.136H787.325ZM791.293 527.136H805.293V513.136H791.293V527.136ZM774.877 533.088V519.088H760.877V533.088H774.877ZM781.181 533.088H795.181V519.088H781.181V533.088ZM781.181 547.264H767.181V561.264H781.181V547.264ZM781.501 547.264V561.264H789.922L793.869 553.825L781.501 547.264ZM789.021 533.088V519.088H780.6L776.654 526.527L789.021 533.088ZM796.253 533.088H810.253V519.088H796.253V533.088ZM796.253 556V570H810.253V556H796.253ZM789.949 556H775.949V570H789.949V556ZM789.949 541.792H803.949V527.792H789.949V541.792ZM789.629 541.792V527.792H781.199L777.255 535.243L789.629 541.792ZM782.109 556V570H790.539L794.483 562.549L782.109 556ZM774.877 556H760.877V570H774.877V556ZM785.789 517.488C786.756 517.488 788.603 517.761 790.522 519.28C792.621 520.94 794.285 523.773 794.285 527.136H766.285C766.285 540.278 778.095 545.488 785.789 545.488V517.488ZM780.285 541.136H784.253V513.136H780.285V541.136ZM770.253 527.136C770.253 530.382 771.244 534.394 774.295 537.764C777.468 541.269 781.762 542.832 785.789 542.832V514.832C788.889 514.832 792.414 516.059 795.051 518.972C797.567 521.75 798.253 524.914 798.253 527.136H770.253ZM785.789 542.832C789.817 542.832 794.11 541.269 797.283 537.764C800.335 534.394 801.325 530.382 801.325 527.136H773.325C773.325 524.914 774.012 521.75 776.527 518.972C779.164 516.059 782.69 514.832 785.789 514.832V542.832ZM787.325 541.136H791.293V513.136H787.325V541.136ZM777.293 527.136C777.293 523.773 778.957 520.94 781.056 519.28C782.976 517.761 784.822 517.488 785.789 517.488V545.488C793.483 545.488 805.293 540.278 805.293 527.136H777.293ZM774.877 547.088H781.181V519.088H774.877V547.088ZM767.181 533.088V547.264H795.181V533.088H767.181ZM781.181 561.264H781.501V533.264H781.181V561.264ZM793.869 553.825L801.389 539.649L776.654 526.527L769.134 540.703L793.869 553.825ZM789.021 547.088H796.253V519.088H789.021V547.088ZM782.253 533.088V556H810.253V533.088H782.253ZM796.253 542H789.949V570H796.253V542ZM803.949 556V541.792H775.949V556H803.949ZM789.949 527.792H789.629V555.792H789.949V527.792ZM777.255 535.243L769.735 549.451L794.483 562.549L802.003 548.341L777.255 535.243ZM782.109 542H774.877V570H782.109V542ZM788.877 556V533.088H760.877V556H788.877ZM797.924 560.8H783.924V574.8H797.924V560.8ZM797.924 550.688V536.688H783.924V550.688H797.924ZM800.1 550.688V564.688H804.883L808.667 561.761L800.1 550.688ZM803.268 544.192L817.171 545.844L817.173 545.819L817.176 545.795L803.268 544.192ZM804.548 533.088V519.088H792.07L790.64 531.485L804.548 533.088ZM821.892 533.088H835.892V519.088H821.892V533.088ZM821.892 550.688H807.892V564.688H821.892V550.688ZM825.028 550.688H839.028V536.688H825.028V550.688ZM825.028 560.8V574.8H839.028V560.8H825.028ZM819.716 560.8H805.716V574.8H819.716V560.8ZM819.716 556H833.716V542H819.716V556ZM803.268 556V542H789.268V556H803.268ZM803.268 560.8V574.8H817.268V560.8H803.268ZM807.044 550.688H793.044V564.688H807.044V550.688ZM815.14 550.688V564.688H829.14V550.688H815.14ZM815.14 538.4H829.14V524.4H815.14V538.4ZM810.564 538.4V524.4H798.257L796.68 536.606L810.564 538.4ZM809.7 545.088L795.816 543.294L795.811 543.335L795.806 543.375L809.7 545.088ZM807.044 550.368L797.933 539.738L793.044 543.929V550.368H807.044ZM811.924 560.8V550.688H783.924V560.8H811.924ZM797.924 564.688H800.1V536.688H797.924V564.688ZM808.667 561.761C814.066 557.584 816.466 551.771 817.171 545.844L789.366 542.54C789.314 542.976 789.297 542.609 789.673 541.861C790.104 541.007 790.77 540.206 791.534 539.615L808.667 561.761ZM817.176 545.795L818.456 534.691L790.64 531.485L789.36 542.589L817.176 545.795ZM804.548 547.088H821.892V519.088H804.548V547.088ZM807.892 533.088V550.688H835.892V533.088H807.892ZM821.892 564.688H825.028V536.688H821.892V564.688ZM811.028 550.688V560.8H839.028V550.688H811.028ZM825.028 546.8H819.716V574.8H825.028V546.8ZM833.716 560.8V556H805.716V560.8H833.716ZM819.716 542H803.268V570H819.716V542ZM789.268 556V560.8H817.268V556H789.268ZM803.268 546.8H797.924V574.8H803.268V546.8ZM807.044 564.688H815.14V536.688H807.044V564.688ZM829.14 550.688V538.4H801.14V550.688H829.14ZM815.14 524.4H810.564V552.4H815.14V524.4ZM796.68 536.606L795.816 543.294L823.585 546.882L824.449 540.194L796.68 536.606ZM795.806 543.375C795.913 542.501 796.438 541.02 797.933 539.738L816.155 560.998C820.339 557.412 822.911 552.347 823.595 546.801L795.806 543.375ZM793.044 550.368V550.688H821.044V550.368H793.044Z" fill="white" mask="url(#path-122-outside-1_838_484)"/>
</g>
<defs>
<clipPath id="clip0_838_484">
<rect width="1440" height="903" fill="white"/>
</clipPath>
<clipPath id="clip1_838_484">
<rect width="705" height="186" fill="white" transform="translate(368 322)"/>
</clipPath>
</defs>
</svg>
